<svg xmlns="http://www.w3.org/2000/svg" height="512pt" preserveAspectRatio="xMidYMid meet" viewBox="0 0 512 512" width="512pt"><g transform="matrix(.003922 0 0 -.003922 0 512)"><path d="m44206 106733c-3161-1383-3757-2844-3855-9450-44-2946-89-5528-101-5738-361-6387 302-57411 758-58304 1416-2773 3050-3376 9523-3509 2477-52 4628-171 4781-265 192-119 278-2951 278-9170 0-8393 31-9026 466-9420 813-735 1874-494 2182 495 92 295 614 895 1161 1334 546 440 2638 2473 4649 4519 2010 2046 3958 3881 4329 4078s1822 1480 3224 2851c5754 5628 7298 6798 7832 5936 784-1269 4721 1 6582 2123 815 929 1790 1837 2167 2018 376 180 914 741 1195 1245 281 505 725 1135 986 1400 262 265 1944 1973 3737 3797 1793 1823 3612 3578 4041 3900 970 728 2887 3224 3490 4544 249 545 685 1180 969 1411 511 415 512 445 69 2746-451 2346-475 4310-374 31131 6 1613 0 3236-14 3607-25 641-4629 6418-5511 6915-410 230-4510 4284-5615 5550-424 487-2160 2171-3856 3743l-3084 2857-19604 3c-16082 3-19748-59-20405-347zm36094-19637c2680-1387 2604-833 2520-18419-96-19891 2028-17530-15837-17606-14848-64-15337-19-16624 1509-1149 1366-1156 1474-1153 16868l4 14813 710 1156c1307 2129 662 2047 16074 2048 11370 0 13708-60 14306-369z" fill="#00A8C6"/><path d="m60261 80321c-828-330-3251-3693-4326-6003-2102-4518-988-9803 3099-14704 1784-2140 2082-2029 11675 4339 4655 3090 4516 2912 4516 5798 0 2565-103 2714-3215 4660-967 604-2800 1755-4073 2557-4198 2643-6707 3739-7676 3353zm5288-5463c1185-763 3109-1983 4277-2710 3559-2215 3470-2827-814-5593-4657-3007-5605-3549-6218-3560l-574-10v6460c0 7946-171 7668 3329 5413z" fill="#00A8C6"/></g></svg>